<mxfile host="app.diagrams.net" agent="Mozilla/5.0 (X11; Ubuntu; Linux x86_64; rv:137.0) Gecko/20100101 Firefox/137.0" version="26.2.14">
  <diagram name="Page-1" id="I-WCKS0thHTMVLHOPiGX">
    <mxGraphModel dx="815" dy="454" grid="1" gridSize="10" guides="1" tooltips="1" connect="1" arrows="1" fold="1" page="1" pageScale="1" pageWidth="850" pageHeight="1100" math="0" shadow="0">
      <root>
        <mxCell id="0" />
        <mxCell id="1" parent="0" />
        <mxCell id="E8oWA0aktgfHAe41XzHA-3" value="System Administrator" style="shape=umlActor;verticalLabelPosition=bottom;verticalAlign=top;html=1;outlineConnect=0;" parent="1" vertex="1">
          <mxGeometry x="50" y="70" width="30" height="60" as="geometry" />
        </mxCell>
        <mxCell id="E8oWA0aktgfHAe41XzHA-4" value="Visitor at INNOVATE" style="shape=umlActor;verticalLabelPosition=bottom;verticalAlign=top;html=1;outlineConnect=0;" parent="1" vertex="1">
          <mxGeometry x="440" y="70" width="30" height="60" as="geometry" />
        </mxCell>
        <mxCell id="E8oWA0aktgfHAe41XzHA-31" value="" style="group" parent="1" vertex="1" connectable="0">
          <mxGeometry x="130" y="20" width="260" height="150" as="geometry" />
        </mxCell>
        <mxCell id="E8oWA0aktgfHAe41XzHA-10" value="" style="rounded=0;whiteSpace=wrap;html=1;container=0;" parent="E8oWA0aktgfHAe41XzHA-31" vertex="1">
          <mxGeometry width="260" height="150" as="geometry" />
        </mxCell>
        <mxCell id="E8oWA0aktgfHAe41XzHA-8" value="Configure Detection Parameters" style="ellipse;whiteSpace=wrap;html=1;" parent="E8oWA0aktgfHAe41XzHA-31" vertex="1">
          <mxGeometry x="10" y="15" width="120" height="50" as="geometry" />
        </mxCell>
        <mxCell id="E8oWA0aktgfHAe41XzHA-19" value="Detect Exit/Entry" style="ellipse;whiteSpace=wrap;html=1;" parent="E8oWA0aktgfHAe41XzHA-31" vertex="1">
          <mxGeometry x="150" y="15" width="90" height="50" as="geometry" />
        </mxCell>
        <mxCell id="E8oWA0aktgfHAe41XzHA-23" value="Send event to database" style="ellipse;whiteSpace=wrap;html=1;" parent="E8oWA0aktgfHAe41XzHA-31" vertex="1">
          <mxGeometry x="142.5" y="85" width="105" height="50" as="geometry" />
        </mxCell>
        <mxCell id="E8oWA0aktgfHAe41XzHA-28" value="" style="endArrow=none;html=1;rounded=0;startFill=0;" parent="E8oWA0aktgfHAe41XzHA-31" source="E8oWA0aktgfHAe41XzHA-8" target="E8oWA0aktgfHAe41XzHA-19" edge="1">
          <mxGeometry width="50" height="50" relative="1" as="geometry">
            <mxPoint x="120" y="255" as="sourcePoint" />
            <mxPoint x="170" y="205" as="targetPoint" />
          </mxGeometry>
        </mxCell>
        <mxCell id="E8oWA0aktgfHAe41XzHA-27" value="" style="endArrow=none;html=1;rounded=0;startFill=0;" parent="E8oWA0aktgfHAe41XzHA-31" source="E8oWA0aktgfHAe41XzHA-19" target="E8oWA0aktgfHAe41XzHA-23" edge="1">
          <mxGeometry width="50" height="50" relative="1" as="geometry">
            <mxPoint x="120" y="255" as="sourcePoint" />
            <mxPoint x="170" y="205" as="targetPoint" />
          </mxGeometry>
        </mxCell>
        <mxCell id="E8oWA0aktgfHAe41XzHA-32" value="Store event locally" style="ellipse;whiteSpace=wrap;html=1;" parent="E8oWA0aktgfHAe41XzHA-31" vertex="1">
          <mxGeometry x="10" y="85" width="90" height="50" as="geometry" />
        </mxCell>
        <mxCell id="E8oWA0aktgfHAe41XzHA-36" value="" style="endArrow=none;html=1;rounded=0;startFill=0;dashed=1;" parent="E8oWA0aktgfHAe41XzHA-31" source="E8oWA0aktgfHAe41XzHA-23" target="E8oWA0aktgfHAe41XzHA-32" edge="1">
          <mxGeometry width="50" height="50" relative="1" as="geometry">
            <mxPoint x="260" y="110" as="sourcePoint" />
            <mxPoint x="310" y="60" as="targetPoint" />
          </mxGeometry>
        </mxCell>
        <mxCell id="E8oWA0aktgfHAe41XzHA-37" value="Fail" style="edgeLabel;html=1;align=center;verticalAlign=middle;resizable=0;points=[];" parent="E8oWA0aktgfHAe41XzHA-36" vertex="1" connectable="0">
          <mxGeometry x="-0.1137" relative="1" as="geometry">
            <mxPoint as="offset" />
          </mxGeometry>
        </mxCell>
        <mxCell id="E8oWA0aktgfHAe41XzHA-29" value="" style="endArrow=none;html=1;rounded=0;startFill=0;" parent="1" source="E8oWA0aktgfHAe41XzHA-4" target="E8oWA0aktgfHAe41XzHA-19" edge="1">
          <mxGeometry width="50" height="50" relative="1" as="geometry">
            <mxPoint x="250" y="260" as="sourcePoint" />
            <mxPoint x="300" y="210" as="targetPoint" />
          </mxGeometry>
        </mxCell>
        <mxCell id="E8oWA0aktgfHAe41XzHA-13" value="" style="endArrow=none;html=1;rounded=0;" parent="1" source="E8oWA0aktgfHAe41XzHA-3" target="E8oWA0aktgfHAe41XzHA-8" edge="1">
          <mxGeometry width="50" height="50" relative="1" as="geometry">
            <mxPoint x="250" y="260" as="sourcePoint" />
            <mxPoint x="300" y="210" as="targetPoint" />
          </mxGeometry>
        </mxCell>
      </root>
    </mxGraphModel>
  </diagram>
</mxfile>
